<svg width="189" height="43" viewBox="0 0 189 43" fill="none" xmlns="http://www.w3.org/2000/svg">
<path fill-rule="evenodd" clip-rule="evenodd" d="M19.6649 3.22352C20.5968 3.06072 21.5421 2.9845 22.4885 2.99586C26.4384 2.99475 30.2876 4.22722 33.4856 6.51705C36.6837 8.80688 39.0668 12.0368 40.2943 15.7451C40.4042 16.006 40.5873 16.2304 40.8222 16.3918C41.0571 16.5532 41.3338 16.6448 41.6197 16.6557L42.0231 16.5419C42.1899 16.4901 42.3448 16.4063 42.4787 16.2951C42.6126 16.184 42.7229 16.0478 42.8032 15.8944C42.8836 15.7409 42.9324 15.5733 42.9468 15.4011C42.9613 15.229 42.9411 15.0557 42.8874 14.8913C41.4698 10.6528 38.7357 6.96346 35.0736 4.34771C31.4115 1.73196 27.0078 0.322896 22.4885 0.320801C21.4068 0.32828 20.3275 0.42346 19.2615 0.605381C18.91 0.658214 18.5942 0.846803 18.3834 1.12966C18.1727 1.41252 18.0844 1.76647 18.1379 2.11366C18.1913 2.46084 18.3823 2.77282 18.6687 2.98096C18.955 3.1891 19.3134 3.27635 19.6649 3.22352ZM41.7927 27.2422C41.464 27.1325 41.1048 27.1546 40.7924 27.3036C40.4799 27.4525 40.2391 27.7166 40.1216 28.039C38.5683 32.111 35.6197 35.5166 31.7882 37.6642C27.9566 39.8117 23.4843 40.5654 19.1486 39.7941C14.8129 39.0229 10.8878 36.7755 8.05549 33.4426C5.22321 30.1097 3.6628 25.9019 3.64544 21.5506C3.64885 16.9106 5.41768 12.4413 8.60112 9.02905C8.72219 8.90199 8.81675 8.75261 8.87938 8.58946C8.94201 8.4263 8.97149 8.25256 8.96614 8.07815C8.96079 7.90374 8.92071 7.73208 8.84819 7.57296C8.77568 7.41385 8.67214 7.27041 8.54349 7.15082C8.41485 7.03123 8.26362 6.93784 8.09843 6.87598C7.93324 6.81412 7.75734 6.785 7.58076 6.79029C7.40418 6.79557 7.23038 6.83516 7.06929 6.90678C6.9082 6.97841 6.76297 7.08067 6.6419 7.20774C4.48503 9.51368 2.87279 12.2634 1.92131 15.2588C0.969839 18.2543 0.70281 21.4209 1.13946 24.5305C1.57612 27.6401 2.70558 30.6154 4.4465 33.242C6.18742 35.8686 8.49646 38.0812 11.2073 39.7203C13.9181 41.3594 16.9633 42.3843 20.1234 42.7211C23.2835 43.058 26.4799 42.6984 29.4824 41.6682C32.4848 40.6381 35.2186 38.963 37.4868 36.7637C39.755 34.5645 41.5011 31.8957 42.5994 28.9497C42.6632 28.7855 42.6929 28.6103 42.6867 28.4345C42.6805 28.2588 42.6385 28.0861 42.5632 27.9267C42.4879 27.7673 42.3809 27.6246 42.2485 27.507C42.1161 27.3894 41.9611 27.2993 41.7927 27.2422ZM21.5515 27.5685C21.8001 27.323 22.1372 27.1851 22.4887 27.1851C23.6056 27.1851 24.6974 26.8579 25.6261 26.2451C26.5548 25.6322 27.2786 24.761 27.706 23.7418C28.1334 22.7226 28.2453 21.6011 28.0274 20.5191C27.8095 19.4371 27.2716 18.4433 26.4819 17.6632C25.6921 16.8832 24.6859 16.3519 23.5904 16.1367C22.495 15.9215 21.3595 16.0319 20.3276 16.4541C19.2957 16.8763 18.4138 17.5912 17.7932 18.5085C17.1727 19.4257 16.8415 20.5041 16.8415 21.6073V32.649C16.8832 32.8477 16.8796 33.0531 16.8309 33.2502C16.7822 33.4473 16.6897 33.6313 16.56 33.7887C16.4303 33.946 16.2667 34.0729 16.0812 34.16C15.8957 34.2472 15.6928 34.2924 15.4874 34.2924C15.2819 34.2924 15.079 34.2472 14.8935 34.16C14.708 34.0729 14.5444 33.946 14.4147 33.7887C14.2851 33.6313 14.1925 33.4473 14.1438 33.2502C14.0951 33.0531 14.0915 32.8477 14.1332 32.649V21.0381C14.1332 20.9812 14.1476 20.9243 14.162 20.8674C14.1764 20.8105 14.1908 20.7536 14.1908 20.6966C14.3686 19.1264 15.0021 17.6405 16.015 16.4176C17.028 15.1947 18.3772 14.2871 19.9002 13.804C21.4233 13.3209 23.0552 13.283 24.5996 13.6947C26.144 14.1064 27.535 14.9503 28.6051 16.1247C29.6752 17.2991 30.3788 18.754 30.6312 20.3142C30.8837 21.8744 30.6741 23.4734 30.0278 24.9187C29.3816 26.364 28.3261 27.594 26.9886 28.4606C25.651 29.3272 24.0883 29.7934 22.4887 29.8032C22.1372 29.8032 21.8001 29.6653 21.5515 29.4198C21.303 29.1743 21.1633 28.8413 21.1633 28.4941C21.1633 28.147 21.303 27.814 21.5515 27.5685ZM22.4882 36.2917C25.1218 36.2793 27.7052 35.5787 29.976 34.2612C32.2468 32.9436 34.1242 31.0561 35.4176 28.7901C36.711 26.5242 37.3743 23.9606 37.3401 21.3595C37.306 18.7585 36.5756 16.2127 35.2232 13.9806C35.1342 13.8293 35.0154 13.6971 34.8737 13.5919C34.7321 13.4867 34.5705 13.4106 34.3986 13.3682C34.2267 13.3257 34.0479 13.3178 33.8728 13.3447C33.6977 13.3717 33.5299 13.4331 33.3792 13.5253C33.0813 13.7132 32.8675 14.0066 32.7818 14.3453C32.696 14.6841 32.7449 15.0424 32.9182 15.3466C34.0467 17.171 34.6616 19.2598 34.6994 21.3974C34.7373 23.535 34.1968 25.6438 33.1337 27.506C32.0705 29.3683 30.5234 30.9165 28.652 31.9907C26.7805 33.0649 24.6527 33.6262 22.4882 33.6167C22.2871 33.5755 22.0791 33.579 21.8796 33.6271C21.68 33.6752 21.4937 33.7667 21.3344 33.8948C21.1751 34.0228 21.0466 34.1844 20.9584 34.3676C20.8702 34.5509 20.8244 34.7513 20.8244 34.9542C20.8244 35.1571 20.8702 35.3575 20.9584 35.5407C21.0466 35.724 21.1751 35.8855 21.3344 36.0136C21.4937 36.1417 21.68 36.2331 21.8796 36.2812C22.0791 36.3293 22.2871 36.3329 22.4882 36.2917ZM10.1919 29.6341C9.99071 29.5248 9.82023 29.3678 9.69585 29.1771C8.34095 26.9409 7.61047 24.3899 7.57883 21.784C7.54719 19.1782 8.21553 16.6106 9.51574 14.3429C10.816 12.0753 12.7016 10.1886 14.9804 8.87516C17.2593 7.56172 19.8499 6.86845 22.4884 6.86601C22.8399 6.86601 23.177 7.00393 23.4256 7.24943C23.6741 7.49492 23.8138 7.82789 23.8138 8.17508C23.8138 8.52226 23.6741 8.85523 23.4256 9.10073C23.177 9.34623 22.8399 9.48415 22.4884 9.48415C20.3246 9.49414 18.2019 10.069 16.3355 11.1504C14.4691 12.2317 12.9253 13.7813 11.8606 15.6419C10.7958 17.5025 10.248 19.608 10.2726 21.7451C10.2973 23.8822 10.8935 25.9749 12.0008 27.8111C12.0941 27.9599 12.1563 28.1257 12.1836 28.2986C12.2109 28.4716 12.2029 28.6482 12.1599 28.818C12.1169 28.9878 12.0399 29.1474 11.9334 29.2873C11.8269 29.4271 11.6931 29.5445 11.5398 29.6324C11.3284 29.7481 11.09 29.8069 10.8483 29.8032C10.6187 29.8015 10.3931 29.7434 10.1919 29.6341Z" fill="url(#paint0_linear_592_2581)"/>
<path d="M62.3642 14.5493H58.3305C58.0401 14.5493 57.7616 14.6632 57.5563 14.8661C57.3509 15.0689 57.2356 15.3439 57.2356 15.6307V27.6969C57.2493 27.934 57.3509 28.1578 57.5209 28.3258C57.6909 28.4937 57.9175 28.594 58.1576 28.6076H58.561C58.8055 28.6076 59.04 28.5116 59.2129 28.3409C59.3858 28.1701 59.4829 27.9384 59.4829 27.6969V24.3958H62.3642C65.9369 24.3958 68.1266 22.5176 68.1266 19.501C68.1266 16.4845 65.9369 14.5493 62.3642 14.5493ZM62.4218 22.233H59.4829V16.7121H62.4218C64.7268 16.7121 65.9369 17.6228 65.9369 19.501C65.9369 21.3792 64.7268 22.233 62.4218 22.233Z" fill="white"/>
<path d="M81.5533 23.7133C82.3323 23.3205 82.9803 22.7145 83.4197 21.9675C83.8592 21.2206 84.0714 20.3645 84.0312 19.5015C84.0312 16.428 81.8415 14.5498 78.2688 14.5498H74.0622C73.8177 14.5498 73.5831 14.6457 73.4102 14.8165C73.2373 14.9873 73.1402 15.2189 73.1402 15.4605V15.802C73.1402 16.0435 73.2373 16.2751 73.4102 16.4459C73.5831 16.6167 73.8177 16.7126 74.0622 16.7126H78.2688C80.6314 16.7126 81.8415 17.6233 81.8415 19.5015C81.8415 21.3797 80.6314 22.2335 78.2688 22.2335H74.0622C73.8221 22.2471 73.5955 22.3474 73.4255 22.5153C73.2555 22.6832 73.1539 22.907 73.1402 23.1441V27.6974C73.1402 27.9389 73.2373 28.1706 73.4102 28.3413C73.5831 28.5121 73.8177 28.6081 74.0622 28.6081H74.4079C74.6525 28.6081 74.887 28.5121 75.0599 28.3413C75.2328 28.1706 75.3299 27.9389 75.3299 27.6974V24.3963H79.306L82.072 28.2666C82.1643 28.392 82.2858 28.4936 82.4261 28.5629C82.5665 28.6323 82.7218 28.6673 82.8787 28.665H83.2821C83.4572 28.6542 83.6271 28.6021 83.7775 28.513C83.9279 28.4238 84.0544 28.3003 84.1464 28.1527C84.2156 27.9958 84.2414 27.8236 84.2211 27.6536C84.2009 27.4836 84.1353 27.322 84.0312 27.1852L81.5533 23.7133Z" fill="white"/>
<path d="M95.2673 14.493C93.8427 14.5043 92.4536 14.9326 91.2754 15.7237C90.0973 16.5148 89.1832 17.6332 88.6485 18.9375C88.1139 20.2417 87.9829 21.6733 88.272 23.0511C88.5611 24.4289 89.2574 25.6911 90.2728 26.6781C91.2881 27.6651 92.577 28.3325 93.9764 28.596C95.3758 28.8594 96.8229 28.7071 98.1347 28.1583C99.4464 27.6095 100.564 26.6888 101.346 25.5126C102.128 24.3364 102.539 22.9577 102.528 21.5506C102.544 20.6097 102.366 19.6754 102.006 18.8044C101.645 17.9335 101.109 17.144 100.43 16.4839C99.7509 15.8239 98.9431 15.307 98.0556 14.9648C97.1682 14.6225 96.2195 14.462 95.2673 14.493ZM95.2673 26.5023C94.2783 26.4911 93.3148 26.1912 92.4979 25.6403C91.6811 25.0894 91.0475 24.3122 90.6769 23.4064C90.3063 22.5007 90.2152 21.5069 90.4151 20.5502C90.615 19.5934 91.0969 18.7164 91.8003 18.0296C92.5037 17.3428 93.397 16.8768 94.3679 16.6903C95.3388 16.5038 96.3438 16.6051 97.2565 16.9815C98.1692 17.3579 98.9488 17.9926 99.4972 18.8056C100.046 19.6186 100.338 20.5737 100.338 21.5506C100.354 22.2101 100.234 22.8658 99.9839 23.4776C99.734 24.0893 99.3601 24.6441 98.8852 25.1079C98.4103 25.5717 97.8443 25.9346 97.2222 26.1744C96.6 26.4142 95.9347 26.5258 95.2673 26.5023Z" fill="white"/>
<path d="M115.609 14.5498H106.101C105.856 14.5498 105.622 14.6457 105.449 14.8165C105.276 14.9873 105.179 15.2189 105.179 15.4605V15.802C105.179 16.0435 105.276 16.2751 105.449 16.4459C105.622 16.6167 105.856 16.7126 106.101 16.7126H109.731V27.6974C109.745 27.9345 109.846 28.1583 110.016 28.3263C110.186 28.4942 110.413 28.5945 110.653 28.6081H111.056C111.297 28.5945 111.523 28.4942 111.693 28.3263C111.863 28.1583 111.965 27.9345 111.978 27.6974V16.7126H115.609C115.853 16.7126 116.088 16.6167 116.261 16.4459C116.434 16.2751 116.531 16.0435 116.531 15.802V15.4605C116.531 15.2189 116.434 14.9873 116.261 14.8165C116.088 14.6457 115.853 14.5498 115.609 14.5498Z" fill="white"/>
<path d="M129.785 26.4453H122.87V22.575H128.748C128.992 22.575 129.227 22.479 129.4 22.3082C129.573 22.1375 129.67 21.9058 129.67 21.6643V21.3228C129.67 21.0813 129.573 20.8497 129.4 20.6789C129.227 20.5081 128.992 20.4122 128.748 20.4122H122.87V16.7126H129.555C129.799 16.7126 130.034 16.6167 130.206 16.4459C130.379 16.2751 130.477 16.0435 130.477 15.802V15.4605C130.477 15.2189 130.379 14.9873 130.206 14.8165C130.034 14.6457 129.799 14.5498 129.555 14.5498H121.718C121.574 14.5498 121.432 14.5778 121.299 14.6321C121.166 14.6865 121.045 14.7661 120.943 14.8665C120.842 14.967 120.761 15.0862 120.706 15.2174C120.651 15.3486 120.623 15.4892 120.623 15.6312V27.5267C120.637 27.809 120.757 28.0761 120.959 28.276C121.161 28.4759 121.432 28.5943 121.718 28.6081H129.785C130.03 28.6081 130.264 28.5121 130.437 28.3413C130.61 28.1706 130.707 27.9389 130.707 27.6974V27.3559C130.707 27.2363 130.683 27.1179 130.637 27.0074C130.591 26.8969 130.523 26.7965 130.437 26.712C130.351 26.6274 130.25 26.5603 130.138 26.5146C130.026 26.4688 129.906 26.4453 129.785 26.4453Z" fill="white"/>
<path d="M144.594 26.4453H138.198V15.4605C138.198 15.2189 138.101 14.9873 137.928 14.8165C137.755 14.6457 137.52 14.5498 137.276 14.5498H136.93C136.68 14.5494 136.439 14.6435 136.257 14.8128C136.075 14.9821 135.965 15.2138 135.95 15.4605V27.5267C135.964 27.809 136.084 28.0761 136.287 28.276C136.489 28.4759 136.759 28.5943 137.045 28.6081H144.594C144.844 28.6085 145.085 28.5144 145.267 28.3451C145.449 28.1758 145.559 27.944 145.574 27.6974V27.3559C145.559 27.1093 145.449 26.8776 145.267 26.7082C145.085 26.5389 144.844 26.4448 144.594 26.4453Z" fill="white"/>
<path d="M150.99 14.5498H150.645C150.135 14.5498 149.723 14.9575 149.723 15.4605V27.6803C149.723 28.1833 150.135 28.591 150.645 28.591H150.99C151.5 28.591 151.912 28.1833 151.912 27.6803V15.4605C151.912 14.9575 151.5 14.5498 150.99 14.5498Z" fill="white"/>
<path d="M164.301 14.493C162.877 14.5043 161.488 14.9326 160.31 15.7237C159.131 16.5148 158.217 17.6332 157.683 18.9375C157.148 20.2417 157.017 21.6733 157.306 23.0511C157.595 24.4289 158.292 25.6911 159.307 26.6781C160.322 27.6651 161.611 28.3325 163.011 28.596C164.41 28.8594 165.857 28.7071 167.169 28.1583C168.481 27.6095 169.598 26.6888 170.38 25.5126C171.162 24.3364 171.573 22.9577 171.562 21.5506C171.578 20.6097 171.401 19.6754 171.04 18.8044C170.679 17.9335 170.143 17.144 169.464 16.4839C168.785 15.8239 167.977 15.307 167.09 14.9648C166.202 14.6225 165.254 14.462 164.301 14.493ZM164.301 26.5023C163.312 26.4911 162.349 26.1912 161.532 25.6403C160.715 25.0894 160.082 24.3122 159.711 23.4064C159.34 22.5007 159.249 21.5069 159.449 20.5502C159.649 19.5934 160.131 18.7164 160.834 18.0296C161.538 17.3428 162.431 16.8768 163.402 16.6903C164.373 16.5038 165.378 16.6051 166.291 16.9815C167.203 17.3579 167.983 17.9926 168.531 18.8056C169.08 19.6186 169.372 20.5737 169.372 21.5506C169.38 22.2079 169.254 22.86 169.001 23.468C168.749 24.0761 168.374 24.6276 167.901 25.0897C167.428 25.5518 166.865 25.9151 166.247 26.1578C165.628 26.4005 164.967 26.5176 164.301 26.5023Z" fill="white"/>
<path d="M187.236 14.5498H186.89C186.646 14.5498 186.411 14.6457 186.238 14.8165C186.065 14.9873 185.968 15.2189 185.968 15.4604V24.3393L178.592 14.8913C178.503 14.7808 178.389 14.6924 178.259 14.6331C178.129 14.5739 177.986 14.5453 177.843 14.5498H177.555C177.311 14.5498 177.076 14.6457 176.903 14.8165C176.73 14.9873 176.633 15.2189 176.633 15.4604V27.6974C176.633 27.9389 176.73 28.1705 176.903 28.3413C177.076 28.5121 177.311 28.608 177.555 28.608H177.901C178.145 28.608 178.38 28.5121 178.553 28.3413C178.726 28.1705 178.823 27.9389 178.823 27.6974V18.8185L186.199 28.2096C186.285 28.3274 186.397 28.4244 186.527 28.4933C186.657 28.5623 186.801 28.6015 186.948 28.608H187.236C187.486 28.6085 187.727 28.5144 187.909 28.345C188.091 28.1757 188.201 27.944 188.215 27.6974V15.4604C188.201 15.2138 188.091 14.9821 187.909 14.8127C187.727 14.6434 187.486 14.5493 187.236 14.5498Z" fill="white"/>
<defs>
<linearGradient id="paint0_linear_592_2581" x1="502.938" y1="2599.01" x2="1604.69" y2="1669.64" gradientUnits="userSpaceOnUse">
<stop stop-color="#D0AD78"/>
<stop offset="1" stop-color="#D3AB70"/>
</linearGradient>
</defs>
</svg>
