<svg width="89" height="24" viewBox="0 0 89 24" fill="none" xmlns="http://www.w3.org/2000/svg">
<path d="M11.2612 9.14025C13.7886 9.00342 16.6531 7.85405 16.6531 4.78905C16.6531 1.5325 13.901 0.0273656 10.1098 0.0273656H0V19.1562H10.8119C13.9852 19.1562 17.3271 17.8153 17.3271 13.9293C17.3271 10.3991 13.9571 9.27708 11.2612 9.14025ZM5.19531 3.72178H9.09882C10.2221 3.72178 11.3735 4.37856 11.3735 5.74686C11.3735 7.22463 10.2502 7.79932 9.15498 7.79932H5.19531V3.72178ZM9.57623 15.2976H5.19531V10.919H9.57623C10.8399 10.919 11.879 11.7127 11.879 13.1083C11.879 14.5861 10.8399 15.2976 9.57623 15.2976Z" fill="#005140"/>
<path d="M23.9869 19.1562V0H19.0162V19.1562H23.9869Z" fill="#005140"/>
<path d="M31.2412 19.1562V5.30901H26.2706V19.1562H31.2412ZM31.2412 3.88598V0.875713H26.2706V3.88598H31.2412Z" fill="#005140"/>
<path d="M43.5785 4.84379C40.7141 4.84379 39.0853 7.06043 38.4956 8.70239V5.33637H33.5249V19.1562H38.4956V12.041C38.5798 9.71494 39.7874 8.2919 41.3881 8.2919C42.7641 8.2919 43.5785 9.16762 43.5785 10.6727V19.1562H48.5773V10.016C48.5773 6.81414 46.8642 4.84379 43.5785 4.84379Z" fill="#005140"/>
<path d="M60.451 11.5485L65.534 5.33637H60.6757L55.705 11.5485V0.0273656H50.7344V19.1562H55.705V16.5017L57.39 14.504L60.7318 19.1562H66.3203L60.451 11.5485Z" fill="#005140"/>
<path d="M72.366 19.1562V0H67.3954V19.1562H72.366Z" fill="#005140"/>
<path d="M84.3383 5.30901L81.3896 14.4493L78.1601 5.30901H73.4141L79.4519 19.8404V19.8677C79.2834 20.333 79.171 20.6613 78.4409 20.6613H75.5203V24H80.0978C81.5581 24 82.3163 22.8506 82.6533 22.0023L89 5.30901H84.3383Z" fill="#005140"/>
</svg>
