<svg width="181" height="32" viewBox="0 0 181 32" fill="none" xmlns="http://www.w3.org/2000/svg">
<path d="M31.1882 16.0199L32.736 14.3064L38.4786 8C39.7744 6.57036 40.097 4.5878 39.3055 2.84433C38.5089 1.08095 36.8098 0 34.8738 0H26.1011C24.2003 0 22.4004 0.797011 21.1198 2.19676L19.8593 3.57659L18.5989 2.19676C17.3334 0.797011 15.5133 0 13.6126 0H4.85498C2.91894 0 1.21986 1.09589 0.428298 2.84433C-0.363262 4.60772 -0.040588 6.57036 1.25515 8L8.54557 16L1.25515 24C-0.040588 25.4296 -0.363262 27.4122 0.428298 29.1557C1.21986 30.9041 2.91894 32 4.85498 32H13.6277C15.5284 32 17.3334 31.203 18.609 29.8032L19.5871 28.7372L19.8896 28.4035L21.15 29.7983C21.1853 29.8331 21.2156 29.8829 21.266 29.9128C22.5264 31.2279 24.2961 31.99 26.1313 31.99H34.904C36.8401 31.99 38.5391 30.9091 39.3307 29.1457C40.1223 27.3973 39.7996 25.4197 38.5038 23.99L31.1882 16.0199ZM24.0843 4.84184C24.6087 4.27397 25.3297 3.96015 26.1061 3.96015H34.9595C35.3779 3.99502 35.5846 4.27397 35.6653 4.45828C35.751 4.64259 35.8519 5.02615 35.5141 5.37484L33.815 7.23786L29.9278 11.5118L28.5161 13.076L24.0037 8.11955L22.5718 6.55542L24.0843 4.84184ZM19.8543 22.5554L14.3335 16.4832L13.9151 16.0199L15.4629 14.3213L19.8745 9.47945L21.4223 11.193L25.8187 16.0149L19.8543 22.5554ZM10.532 12.3437L4.97599 6.22167L4.19955 5.37484C3.88192 5.01121 3.96259 4.64259 4.0483 4.45828C4.13401 4.27397 4.3508 3.94022 4.83986 3.94022H13.6126C14.389 3.94022 15.11 4.25405 15.6343 4.82192L17.1821 6.52055L12.6345 11.5118L11.2228 13.061L10.532 12.3437ZM15.6293 27.193C15.1049 27.7609 14.384 28.0747 13.6075 28.0747H4.85498C4.36593 28.0747 4.14913 27.7609 4.06342 27.5567C3.97771 27.3724 3.87688 26.9888 4.21468 26.6401L6.01459 24.6625L11.2177 18.939L17.1771 25.4745L15.6293 27.193ZM24.0843 27.193L24.0188 27.1283L22.5365 25.4994L24.3062 23.5517L28.4959 18.9589L34.42 25.4645L35.5141 26.66C35.8317 27.0237 35.751 27.3923 35.6653 27.5766C35.5796 27.7609 35.3628 28.0946 34.8738 28.0946H26.1011C25.3297 28.0747 24.6036 27.7609 24.0843 27.193Z" fill="url(#paint0_linear_960_2935)"/>
<path opacity="0.7" d="M35.6628 4.45833C35.7485 4.64264 35.8494 5.0262 35.5116 5.37489L33.8125 7.2379L34.9923 9.83317C34.9923 9.83317 35.8191 9.01624 37.1804 7.42221C38.5417 5.82819 37.856 3.94525 35.799 3.94525H34.9419C35.3755 3.99008 35.5771 4.27402 35.6628 4.45833Z" fill="url(#paint1_linear_960_2935)"/>
<path opacity="0.7" d="M4.0638 4.45827C4.14951 4.27396 4.36631 3.94021 4.85536 3.94021H7.19475L8.35436 1.16064C8.35436 1.16064 7.17458 1.12577 5.07216 1.22539C2.96974 1.32502 2.06221 3.12826 3.45879 4.60771C3.87726 5.05603 4.45202 5.65379 4.97636 6.20671L4.19993 5.35989C3.8823 5.02116 3.96297 4.64258 4.0638 4.45827Z" fill="url(#paint2_linear_960_2935)"/>
<path opacity="0.7" d="M4.06348 27.5766C3.98281 27.3973 3.88197 27.0137 4.21473 26.665L6.01465 24.6874L4.89033 22.2067C4.89033 22.2067 4.06348 23.0237 2.7022 24.6177C1.34092 26.2117 2.0266 28.0946 4.08365 28.0946H4.87521C4.36599 28.0747 4.14919 27.7609 4.06348 27.5766Z" fill="url(#paint3_linear_960_2935)"/>
<path opacity="0.7" d="M35.6671 27.5765C35.5813 27.7608 35.3645 28.0945 34.8755 28.0945H32.6017L31.4219 30.904C31.4219 30.904 32.6017 30.9389 34.7041 30.8392C36.8065 30.7396 37.7191 28.9414 36.3225 27.4619C35.7981 26.914 35.0419 26.1169 34.4369 25.4843L35.5309 26.6798C35.8334 27.0136 35.7528 27.3772 35.6671 27.5765Z" fill="url(#paint4_linear_960_2935)"/>
<path opacity="0.45" d="M12.6355 11.5268L11.2188 13.076L13.8959 16.0199L15.4488 14.3213L12.6355 11.5268Z" fill="url(#paint5_linear_960_2935)"/>
<path opacity="0.65" d="M28.5117 13.076L31.1889 16.0001L32.7367 14.3064L29.9234 11.5119L28.5117 13.076Z" fill="url(#paint6_linear_960_2935)"/>
<path opacity="0.45" d="M22.5489 6.53558L19.8516 9.47954L21.4196 11.1931L23.9808 8.11466L22.5489 6.53558Z" fill="url(#paint7_linear_960_2935)"/>
<path opacity="0.65" d="M24.011 27.1283L22.5287 25.4995L19.8516 28.4434L21.112 29.8382C21.1473 29.8731 21.1776 29.9229 21.228 29.9528L21.4952 30.152L24.011 27.1283Z" fill="url(#paint8_linear_960_2935)"/>
<path d="M49.7392 11.5716L55.0431 16.5778L60.3471 11.5716C60.6597 11.2279 60.9521 11.1382 61.6277 11.1382H64.2444C64.8292 11.1382 64.9401 11.7908 64.6275 12.1494L57.68 18.5305L64.7233 25.0361C65.0359 25.3798 64.925 26.0473 64.3402 26.0473H61.668C61.0076 26.0473 60.6798 25.9576 60.3672 25.6139L54.9524 20.518L49.5375 25.6139C49.2249 25.9576 48.9325 26.0473 48.2367 26.0473H45.6553C45.0705 26.0473 44.9596 25.3948 45.2721 25.0361L52.3155 18.5305L45.4234 12.1494C45.1108 11.8057 45.2217 11.1382 45.8066 11.1382H48.4787C49.1342 11.1382 49.4316 11.2279 49.7392 11.5716Z" fill="#1C1E21"/>
<path d="M87.1121 23.5716V25.2005C87.1121 25.7783 86.855 26.0323 86.3054 26.0323H73.464C70.7364 26.0323 68.9062 24.2241 68.9062 21.5292V15.6363C68.9062 12.9414 70.7364 11.1332 73.464 11.1332H86.3054C86.855 11.1332 87.1121 11.3873 87.1121 11.9651V13.594C87.1121 14.1718 86.855 14.4259 86.3054 14.4259H74.6892C73.4439 14.4259 72.6926 15.1681 72.6926 16.3985V20.7521C72.6926 21.9825 73.4439 22.7247 74.6892 22.7247H86.3054C86.86 22.7397 87.1121 22.9937 87.1121 23.5716Z" fill="#1C1E21"/>
<path d="M96.7382 22.7398H97.0307C97.6155 22.7398 97.8726 22.9939 97.8726 23.5717V25.2006C97.8726 25.7784 97.6155 26.0325 97.0307 26.0325H95.8055C93.1334 26.0325 91.6914 24.6028 91.6914 21.9677V11.9702C91.6914 11.3924 91.9838 11.1383 92.5334 11.1383H94.656C95.2408 11.1383 95.498 11.3924 95.498 11.9702V21.4796C95.4929 22.3065 95.8408 22.7398 96.7382 22.7398Z" fill="#1C1E21"/>
<path d="M115.231 23.5716V25.2005C115.231 25.7783 114.974 26.0324 114.389 26.0324H107.457C104.729 26.0324 102.899 24.2241 102.899 21.5293V14.4259H101.326C100.777 14.4259 100.52 14.1718 100.52 13.594V11.9651C100.52 11.3873 100.777 11.1332 101.326 11.1332H102.899V8.38355C102.899 7.80571 103.156 7.55167 103.741 7.55167H105.829C106.413 7.55167 106.671 7.80571 106.671 8.38355V11.1332H114.243C114.828 11.1332 115.085 11.3873 115.085 11.9651V13.594C115.085 14.1718 114.828 14.4259 114.243 14.4259H106.671V20.7522C106.671 21.9826 107.422 22.7248 108.667 22.7248H114.395C114.979 22.7397 115.231 22.9938 115.231 23.5716Z" fill="#1C1E21"/>
<path d="M124.859 22.7398H125.152C125.737 22.7398 125.994 22.9939 125.994 23.5717V25.2006C125.994 25.7784 125.737 26.0325 125.152 26.0325H123.927C121.254 26.0325 119.812 24.6028 119.812 21.9677V11.9702C119.812 11.3924 120.105 11.1383 120.654 11.1383H122.777C123.362 11.1383 123.619 11.3924 123.619 11.9702V21.4796C123.614 22.3065 123.962 22.7398 124.859 22.7398Z" fill="#1C1E21"/>
<path d="M136.012 22.7398H143.368C144.594 22.7398 145.365 21.9976 145.365 20.7672V11.9702C145.365 11.3924 145.622 11.1383 146.172 11.1383H148.294C148.879 11.1383 149.136 11.3924 149.136 11.9702V21.5294C149.136 24.2243 147.306 26.0325 144.578 26.0325H134.772C132.045 26.0325 130.199 24.2243 130.199 21.5294V11.9702C130.199 11.3924 130.492 11.1383 131.041 11.1383H133.164C133.749 11.1383 134.006 11.3924 134.006 11.9702V20.7722C134.021 21.9976 134.772 22.7398 136.012 22.7398Z" fill="#1C1E21"/>
<path d="M163.694 14.4458H160.034C158.788 14.4458 158.037 15.188 158.037 16.4184V25.2005C158.037 25.7783 157.78 26.0323 157.195 26.0323H155.072C154.523 26.0323 154.23 25.7783 154.23 25.2005V15.6363C154.23 12.9414 156.076 11.1332 158.803 11.1332H163.86C165.6 11.1332 166.88 11.8754 167.576 13.1407C168.237 11.8754 169.517 11.1332 171.292 11.1332H176.434C179.162 11.1332 181.007 12.9414 181.007 15.6363V25.1955C181.007 25.7733 180.715 26.0274 180.165 26.0274H178.063C177.478 26.0274 177.221 25.7733 177.221 25.1955V16.4134C177.221 15.183 176.47 14.4408 175.224 14.4408H171.473C170.248 14.4408 169.477 15.183 169.477 16.4134V25.1955C169.477 25.7733 169.22 26.0274 168.635 26.0274H166.548C165.963 26.0274 165.706 25.7733 165.706 25.1955V16.4134C165.711 15.183 164.959 14.4458 163.694 14.4458Z" fill="#1C1E21"/>
<path d="M95.494 7.88542C95.494 8.42839 95.2369 8.7173 94.6521 8.7173H92.5295C91.9799 8.7173 91.6875 8.42839 91.6875 7.88542V5.73349C91.6875 5.15566 91.9799 4.90161 92.5295 4.90161H94.6521C95.2369 4.90161 95.494 5.15566 95.494 5.73349V7.88542Z" fill="#F98608"/>
<path d="M123.611 7.88542C123.611 8.42839 123.354 8.7173 122.769 8.7173H120.647C120.097 8.7173 119.805 8.42839 119.805 7.88542V5.73349C119.805 5.15566 120.097 4.90161 120.647 4.90161H122.769C123.354 4.90161 123.611 5.15566 123.611 5.73349V7.88542Z" fill="#C90BF7"/>
<defs>
<linearGradient id="paint0_linear_960_2935" x1="1.70135" y1="16.001" x2="36.9037" y2="16.001" gradientUnits="userSpaceOnUse">
<stop offset="0.13" stop-color="#FF9202"/>
<stop offset="0.44" stop-color="#DB5766"/>
<stop offset="0.71" stop-color="#BE28B7"/>
<stop offset="0.91" stop-color="#AC0BE9"/>
<stop offset="1" stop-color="#A600FD"/>
</linearGradient>
<linearGradient id="paint1_linear_960_2935" x1="36.0167" y1="2.81225" x2="35.8261" y2="7.05724" gradientUnits="userSpaceOnUse">
<stop offset="0.19" stop-color="#1D0551"/>
<stop offset="0.38" stop-color="#270659" stop-opacity="0.95"/>
<stop offset="0.55" stop-color="#460B71" stop-opacity="0.81"/>
<stop offset="0.73" stop-color="#7B149A" stop-opacity="0.58"/>
<stop offset="0.9" stop-color="#C520D3" stop-opacity="0.25"/>
<stop offset="1" stop-color="#FD29FF" stop-opacity="0"/>
</linearGradient>
<linearGradient id="paint2_linear_960_2935" x1="2.39413" y1="5.44412" x2="5.62219" y2="2.63831" gradientUnits="userSpaceOnUse">
<stop offset="0.19" stop-color="#1D0551"/>
<stop offset="0.38" stop-color="#270659" stop-opacity="0.95"/>
<stop offset="0.55" stop-color="#460B71" stop-opacity="0.81"/>
<stop offset="0.73" stop-color="#7B149A" stop-opacity="0.58"/>
<stop offset="0.9" stop-color="#C520D3" stop-opacity="0.25"/>
<stop offset="1" stop-color="#FD29FF" stop-opacity="0"/>
</linearGradient>
<linearGradient id="paint3_linear_960_2935" x1="3.83357" y1="29.2326" x2="4.0242" y2="24.9876" gradientUnits="userSpaceOnUse">
<stop offset="0.19" stop-color="#1D0551"/>
<stop offset="0.38" stop-color="#270659" stop-opacity="0.95"/>
<stop offset="0.55" stop-color="#460B71" stop-opacity="0.81"/>
<stop offset="0.73" stop-color="#7B149A" stop-opacity="0.58"/>
<stop offset="0.9" stop-color="#C520D3" stop-opacity="0.25"/>
<stop offset="1" stop-color="#FD29FF" stop-opacity="0"/>
</linearGradient>
<linearGradient id="paint4_linear_960_2935" x1="36.7013" y1="26.6371" x2="33.4732" y2="29.4426" gradientUnits="userSpaceOnUse">
<stop offset="0.19" stop-color="#1D0551"/>
<stop offset="0.38" stop-color="#270659" stop-opacity="0.95"/>
<stop offset="0.55" stop-color="#460B71" stop-opacity="0.81"/>
<stop offset="0.73" stop-color="#7B149A" stop-opacity="0.58"/>
<stop offset="0.9" stop-color="#C520D3" stop-opacity="0.25"/>
<stop offset="1" stop-color="#FD29FF" stop-opacity="0"/>
</linearGradient>
<linearGradient id="paint5_linear_960_2935" x1="11.7328" y1="15.427" x2="13.2098" y2="13.7942" gradientUnits="userSpaceOnUse">
<stop offset="0.19" stop-color="#1D0551"/>
<stop offset="0.38" stop-color="#270659" stop-opacity="0.95"/>
<stop offset="0.55" stop-color="#460B71" stop-opacity="0.81"/>
<stop offset="0.73" stop-color="#7B149A" stop-opacity="0.58"/>
<stop offset="0.9" stop-color="#C520D3" stop-opacity="0.25"/>
<stop offset="1" stop-color="#FD29FF" stop-opacity="0"/>
</linearGradient>
<linearGradient id="paint6_linear_960_2935" x1="29.0173" y1="15.4125" x2="30.496" y2="13.7811" gradientUnits="userSpaceOnUse">
<stop offset="0.19" stop-color="#1D0551"/>
<stop offset="0.38" stop-color="#270659" stop-opacity="0.95"/>
<stop offset="0.55" stop-color="#460B71" stop-opacity="0.81"/>
<stop offset="0.73" stop-color="#7B149A" stop-opacity="0.58"/>
<stop offset="0.9" stop-color="#C520D3" stop-opacity="0.25"/>
<stop offset="1" stop-color="#FD29FF" stop-opacity="0"/>
</linearGradient>
<linearGradient id="paint7_linear_960_2935" x1="19.8936" y1="7.72627" x2="21.5905" y2="9.04011" gradientUnits="userSpaceOnUse">
<stop offset="0.19" stop-color="#1D0551"/>
<stop offset="0.38" stop-color="#270659" stop-opacity="0.95"/>
<stop offset="0.55" stop-color="#460B71" stop-opacity="0.81"/>
<stop offset="0.73" stop-color="#7B149A" stop-opacity="0.58"/>
<stop offset="0.9" stop-color="#C520D3" stop-opacity="0.25"/>
<stop offset="1" stop-color="#FD29FF" stop-opacity="0"/>
</linearGradient>
<linearGradient id="paint8_linear_960_2935" x1="20" y1="26.7451" x2="21.6987" y2="28.0622" gradientUnits="userSpaceOnUse">
<stop offset="0.19" stop-color="#1D0551"/>
<stop offset="0.38" stop-color="#270659" stop-opacity="0.95"/>
<stop offset="0.55" stop-color="#460B71" stop-opacity="0.81"/>
<stop offset="0.73" stop-color="#7B149A" stop-opacity="0.58"/>
<stop offset="0.9" stop-color="#C520D3" stop-opacity="0.25"/>
<stop offset="1" stop-color="#FD29FF" stop-opacity="0"/>
</linearGradient>
</defs>
</svg>
