<svg width="108" height="40" viewBox="0 0 108 40" fill="none" xmlns="http://www.w3.org/2000/svg">
<g clip-path="url(#clip0_139_43397)">
<path d="M26.0383 5.46355V18.1175C26.0383 18.4438 25.9034 18.7569 25.6631 18.9882C25.4229 19.2195 25.0968 19.3502 24.7562 19.3517H22.9837C22.814 19.3525 22.6459 19.3211 22.4889 19.2594C22.332 19.1977 22.1893 19.1069 22.0691 18.9922C21.9488 18.8775 21.8534 18.7412 21.7883 18.5911C21.7232 18.441 21.6897 18.28 21.6897 18.1175V5.46355C21.6889 5.30174 21.7215 5.14137 21.7856 4.99165C21.8497 4.84194 21.944 4.70583 22.0632 4.59114C22.1823 4.47646 22.3239 4.38545 22.4798 4.32336C22.6358 4.26126 22.803 4.2293 22.9718 4.2293H24.7444C24.9142 4.2278 25.0827 4.25865 25.24 4.32008C25.3973 4.3815 25.5403 4.47227 25.6607 4.58711C25.7811 4.70194 25.8765 4.83856 25.9413 4.98902C26.0061 5.13948 26.0391 5.30078 26.0383 5.46355ZM18.3574 4.2293C17.8246 4.23306 17.304 4.38269 16.857 4.66055C16.4101 4.93841 16.0553 5.33292 15.8345 5.79759L11.1078 15.4225C10.9955 15.649 10.7769 16.017 10.5878 16.017C10.3988 16.017 10.1802 15.649 10.0679 15.4225L5.29983 5.79759C5.07739 5.32943 4.71894 4.93257 4.26735 4.65445C3.81576 4.37633 3.29013 4.22873 2.75331 4.2293H0L7.51548 18.1741C8.25994 19.5442 9.7843 19.5159 10.5642 19.5159C11.6454 19.5159 12.9276 19.4593 13.5775 18.1741L21.093 4.2293H18.3574ZM101.37 1.91366C101.37 1.58729 101.235 1.27421 100.995 1.04291C100.755 0.8116 100.429 0.680903 100.088 0.679405H98.3157C97.9751 0.680903 97.649 0.8116 97.4088 1.04291C97.1685 1.27421 97.0336 1.58729 97.0336 1.91366V14.4091C97.0336 16.3227 97.7367 17.4324 99.0011 18.2307C100.265 19.029 101.642 19.3631 104.283 19.3631H105.719C106.06 19.3586 106.384 19.225 106.622 18.9916C106.861 18.7581 106.992 18.4439 106.989 18.1175V16.7757H105.908C105.128 16.7757 103.491 16.7473 102.528 16.1189C101.258 15.3206 101.347 13.8995 101.347 12.8691L101.37 1.91366ZM73.5064 16.7757C72.7264 16.7757 71.0898 16.7473 70.1208 16.1189C68.8564 15.3206 68.9392 13.8995 68.9392 12.8691V6.79405H73.1637C73.5037 6.79405 73.8298 6.66461 74.0703 6.43421C74.3107 6.2038 74.4458 5.89131 74.4458 5.56546V4.2293H68.9392V1.91366C68.9392 1.58729 68.8043 1.27421 68.564 1.04291C68.3237 0.8116 67.9976 0.680903 67.657 0.679405H65.8845C65.5439 0.680903 65.2178 0.8116 64.9776 1.04291C64.7373 1.27421 64.6024 1.58729 64.6024 1.91366V4.2293H55.5389V1.91366C55.5389 1.58729 55.404 1.27421 55.1638 1.04291C54.9235 0.8116 54.5974 0.680903 54.2568 0.679405H52.4843C52.1437 0.680903 51.8176 0.8116 51.5773 1.04291C51.337 1.27421 51.2022 1.58729 51.2022 1.91366V4.2293H48.4489V5.56546C48.4488 5.72921 48.4829 5.89132 48.5492 6.04226C48.6155 6.19319 48.7126 6.32991 48.8348 6.44437C48.957 6.55884 49.1018 6.64873 49.2608 6.70879C49.4198 6.76884 49.5897 6.79783 49.7605 6.79405H51.1903V14.4091C51.1903 16.3227 51.8934 17.4324 53.1578 18.2307C54.4222 19.029 55.7989 19.3631 58.4754 19.3631H59.9052C60.2427 19.3542 60.5631 19.2187 60.7973 18.9857C61.0316 18.7528 61.161 18.441 61.1578 18.1175V16.7757H60.0825C59.2967 16.7757 57.66 16.7473 56.697 16.1189C55.4326 15.3206 55.5153 13.8995 55.5153 12.8691V6.79405H64.5965V14.4091C64.5965 16.3227 65.2996 17.4324 66.564 18.2307C67.8284 19.029 69.205 19.3631 71.8461 19.3631H73.2818C73.4535 19.3653 73.6238 19.3347 73.7829 19.273C73.942 19.2113 74.0867 19.1197 74.2083 19.0036C74.33 18.8876 74.4262 18.7494 74.4913 18.5973C74.5565 18.4451 74.5892 18.282 74.5876 18.1175V16.7757H73.5064ZM24.7562 0H22.9837C22.6436 0 22.3175 0.12944 22.0771 0.359846C21.8366 0.590252 21.7015 0.902749 21.7015 1.22859V4.2293C21.8424 3.79533 22.1333 3.42032 22.5264 3.16609C22.9195 2.91187 23.3913 2.79362 23.864 2.83086H24.7562C24.9246 2.83086 25.0913 2.79908 25.2468 2.73733C25.4024 2.67559 25.5437 2.5851 25.6628 2.47101C25.7818 2.35692 25.8763 2.22149 25.9407 2.07243C26.0051 1.92337 26.0383 1.76361 26.0383 1.60226V1.22859C26.0383 0.902749 25.9032 0.590252 25.6628 0.359846C25.4223 0.12944 25.0962 0 24.7562 0ZM46.8713 18.1175V16.7757H37.2229C35.6217 16.7757 33.796 16.6058 33.2406 14.9809C33.0689 14.2986 32.9817 13.5993 32.9807 12.8974H44.4548C45.2086 12.9472 45.9575 12.7473 46.5759 12.3312C46.9042 12.0493 47.1592 11.6976 47.3202 11.3044C47.4813 10.9111 47.5441 10.4872 47.5035 10.0665C47.5035 8.15287 47.019 6.27318 44.7147 5.15782C42.895 4.27459 40.5139 4.18967 38.2155 4.18967C36.3544 4.18967 33.0102 4.18967 30.8536 5.61642C28.6971 7.04317 28.4903 9.12102 28.4903 11.9462C28.4903 13.9448 28.6025 16.0226 29.9024 17.4494C31.539 19.2158 33.9201 19.3631 35.929 19.3631H45.5892C45.7588 19.3623 45.9267 19.3295 46.083 19.2664C46.2394 19.2033 46.3812 19.1113 46.5003 18.9956C46.6195 18.8798 46.7136 18.7427 46.7772 18.592C46.8409 18.4413 46.8729 18.28 46.8713 18.1175ZM43.0072 9.45506C43.0072 9.85138 42.895 10.3383 42.0382 10.3383H35.8462C34.2746 10.3383 32.9984 11.029 32.9984 11.8783V10.3326C33.0338 9.33616 32.9984 8.50955 33.8906 7.73956C35.0722 6.70913 36.8448 6.73744 38.0264 6.73744C39.2081 6.73744 40.6675 6.79405 41.7428 7.4225C42.115 7.63062 42.4261 7.92563 42.6472 8.28004C42.8683 8.63446 42.9921 9.03674 43.0072 9.4494V9.45506ZM93.9435 18.1175V16.7757H84.2951C82.6998 16.7757 80.8741 16.6058 80.3187 14.9809C80.1441 14.2991 80.0568 13.5994 80.0588 12.8974H91.5151C92.269 12.9472 93.0178 12.7473 93.6363 12.3312C93.9646 12.0493 94.2195 11.6976 94.3806 11.3044C94.5417 10.9111 94.6045 10.4872 94.5639 10.0665C94.5639 8.15287 94.0794 6.27318 91.7751 5.15782C89.9494 4.27459 87.5683 4.18967 85.2759 4.18967C83.4147 4.18967 80.0706 4.18967 77.9081 5.61642C75.7456 7.04317 75.5448 9.12102 75.5448 11.9462C75.5448 13.9448 75.657 16.0226 76.9569 17.4494C78.5935 19.2158 80.9746 19.3631 82.9834 19.3631H92.6377C92.8094 19.3653 92.9798 19.3347 93.1389 19.273C93.298 19.2113 93.4426 19.1197 93.5642 19.0036C93.6859 18.8876 93.7821 18.7494 93.8472 18.5973C93.9124 18.4451 93.9451 18.282 93.9435 18.1175ZM90.0735 9.45506C90.0735 9.85138 89.9612 10.3383 89.1104 10.3383H82.9066C81.3291 10.3383 80.0588 11.029 80.0588 11.8783V10.3326C80.0942 9.33616 80.0588 8.50955 80.9509 7.73956C82.1326 6.70913 83.9051 6.73744 85.0868 6.73744C86.2685 6.73744 87.7279 6.79405 88.8032 7.4225C89.1746 7.63091 89.4849 7.92612 89.705 8.28058C89.925 8.63504 90.0478 9.03716 90.0617 9.4494L90.0735 9.45506Z" fill="#FF0022"/>
<path d="M43.8106 37.5259V36.235H48.9687C49.1792 36.2384 49.3857 36.1791 49.5595 36.0652C49.6425 36.0047 49.7086 35.9255 49.7519 35.8346C49.7952 35.7437 49.8143 35.644 49.8077 35.5443C49.812 35.4052 49.7751 35.2678 49.7013 35.148C49.6199 35.0237 49.5001 34.9267 49.3586 34.8705C49.2248 34.8084 49.0866 34.7554 48.945 34.712C48.8269 34.678 48.6437 34.6328 48.3896 34.5818L47.8874 34.4742L46.1149 34.0666C45.4049 33.963 44.7373 33.6774 44.1829 33.24C43.8437 32.8454 43.6784 32.3397 43.722 31.8302C43.6914 31.5533 43.7289 31.2733 43.8315 31.0128C43.9341 30.7523 44.099 30.5184 44.3129 30.3298C44.9139 29.9743 45.6176 29.8117 46.3217 29.8656H51.4916V31.1678H46.6289C46.374 31.1509 46.119 31.1997 45.8904 31.3093C45.8043 31.3766 45.7378 31.4641 45.6974 31.5633C45.657 31.6626 45.6441 31.7701 45.66 31.8755C45.6601 31.974 45.6829 32.0713 45.7268 32.1604C45.7707 32.2494 45.8347 32.3281 45.914 32.3907C46.0545 32.5148 46.2191 32.611 46.3985 32.6738L47.0957 32.8606L49.0691 33.3249C49.4709 33.4211 49.784 33.5004 50.0026 33.5627C50.2586 33.6377 50.5093 33.7285 50.753 33.8344C50.9918 33.9292 51.2101 34.0655 51.397 34.2364C51.5549 34.4027 51.681 34.5943 51.7693 34.8026C51.8744 35.0545 51.9266 35.3239 51.9229 35.5952C51.952 36.1195 51.7654 36.6339 51.4029 37.0277C51.1575 37.2205 50.8741 37.364 50.5696 37.4496C50.265 37.5352 49.9456 37.5611 49.6304 37.5259H43.8106Z" fill="white"/>
<path d="M61.4472 37.5258H56.3483C55.7472 37.5432 55.1475 37.4609 54.5757 37.2823C54.1425 37.1418 53.769 36.8694 53.5122 36.5067C53.2688 36.1492 53.1021 35.7489 53.0218 35.329C52.9251 34.7849 52.8816 34.2333 52.8918 33.6815C52.8918 32.1981 53.2286 31.1771 53.9022 30.6185C54.5757 30.0599 55.7121 29.7805 57.3113 29.7805C58.4458 29.7176 59.5773 29.9443 60.5905 30.4373C61.3468 30.8789 61.7249 31.6716 61.7249 32.8152C61.7249 33.7777 61.2522 34.259 60.3069 34.259H54.9893C54.9479 34.7809 55.0848 35.3015 55.3793 35.7423C55.5875 35.9316 55.8372 36.074 56.1101 36.1592C56.3829 36.2444 56.6722 36.2702 56.9568 36.2349H61.4472V37.5258ZM54.9834 32.9568H59.1843C59.2473 32.9635 59.3111 32.9563 59.3707 32.9357C59.4304 32.915 59.4843 32.8815 59.5283 32.8377C59.5722 32.794 59.6051 32.7411 59.6244 32.6832C59.6436 32.6253 59.6487 32.5639 59.6392 32.5038C59.645 32.2832 59.5853 32.0656 59.4671 31.8761C59.349 31.6867 59.1771 31.5333 58.9716 31.4338C58.459 31.1817 57.8871 31.0607 57.3113 31.0827C56.6735 31.0253 56.0346 31.1813 55.5034 31.5244C55.3142 31.7132 55.1698 31.9389 55.08 32.1861C54.9903 32.4333 54.9573 32.6962 54.9834 32.9568V32.9568Z" fill="white"/>
<path d="M70.5343 31.1677H67.1961C66.8388 31.1609 66.4824 31.2048 66.1385 31.2979C65.8893 31.3649 65.6563 31.4784 65.4531 31.632C65.2749 31.7847 65.1424 31.9801 65.0691 32.1981C64.9783 32.4159 64.9186 32.6445 64.8918 32.8775C64.8918 33.0984 64.8918 33.3701 64.8918 33.6985C64.8849 34.0393 64.9066 34.3801 64.9568 34.7176C65.0083 34.9922 65.1082 35.2564 65.2522 35.4989C65.4115 35.7641 65.6654 35.9652 65.9671 36.0651C66.3715 36.199 66.7981 36.2604 67.2256 36.2463H70.7707V37.5485H66.7234C65.2581 37.5485 64.2379 37.2239 63.6629 36.5746C63.0262 35.7473 62.7182 34.7295 62.7943 33.7042C62.723 32.6916 63.0309 31.6878 63.6629 30.8733C64.234 30.2279 65.2542 29.9052 66.7234 29.9052H70.5639L70.5343 31.1677Z" fill="white"/>
<path d="M80.4252 29.8655V36.2349C80.4252 37.1068 79.9052 37.5371 78.8653 37.5371H75.5153C74.6001 37.5968 73.6866 37.4001 72.886 36.9709C72.5602 36.7412 72.3026 36.4338 72.1388 36.0792C71.9751 35.7247 71.9109 35.3353 71.9525 34.9497V29.8655H73.9732V34.4628C73.952 34.702 73.9808 34.9429 74.0579 35.1714C74.135 35.3998 74.2588 35.6113 74.4222 35.7933C74.8343 36.117 75.363 36.2716 75.8934 36.2236H77.8846C78.2272 36.2236 78.3986 36.082 78.3986 35.7933V29.8655H80.4252Z" fill="white"/>
<path d="M82.0146 37.5258V32.7586C81.9792 32.3512 82.0436 31.9415 82.2026 31.5621C82.3616 31.1827 82.6108 30.8441 82.9304 30.5732C83.7539 30.057 84.7317 29.8143 85.7132 29.8825H87.084V31.1847H86.2627C85.6517 31.1276 85.0421 31.3047 84.567 31.6772C84.1986 32.1113 84.0207 32.6655 84.0707 33.2229V37.5428L82.0146 37.5258Z" fill="white"/>
<path d="M89.9021 28.8748H87.8755V27.2952H89.9021V28.8748ZM87.8755 37.5429V29.8656H89.9021V37.5259L87.8755 37.5429Z" fill="white"/>
<path d="M96.5963 37.5259H95.3319C94.4564 37.5841 93.5829 37.3867 92.8268 36.9597C92.5248 36.7359 92.2869 36.4426 92.135 36.1071C91.9831 35.7715 91.9223 35.4045 91.9582 35.0404V31.1678H90.6938V29.8656H91.9582V27.4141H93.9848V29.8712H96.5963V31.1678H93.9848V34.678C93.9619 34.9023 93.9967 35.1285 94.0864 35.3368C94.176 35.5451 94.3176 35.7291 94.4988 35.8727C94.9808 36.1432 95.537 36.2676 96.0941 36.2294H96.5963V37.5259Z" fill="white"/>
<path d="M107.143 29.8712L101.678 40H99.6215L101.034 37.4975L96.9509 29.8712H99.0425L101.997 35.7481L105.11 29.8712H107.143Z" fill="white"/>
</g>
<defs>
<clipPath id="clip0_139_43397">
<rect width="107.143" height="40" fill="white"/>
</clipPath>
</defs>
</svg>
